<svg xmlns="http://www.w3.org/2000/svg" xmlns:xlink="http://www.w3.org/1999/xlink" width="200" height="200" class="icon" p-id="8788" t="1675770633790" version="1.1" viewBox="0 0 1024 1024"><path d="M127.786667 256.810667a63.018667 63.018667 0 1 0 125.994666 0 63.018667 63.018667 0 0 0-125.994666 0z m731.904 29.013333H361.898667a36.138667 36.138667 0 0 1 0-72.192h497.92c19.882667 0 36.096 16.170667 36.096 36.053333a36.181333 36.181333 0 0 1-36.224 36.096zM127.786667 512a63.018667 63.018667 0 1 0 125.994666 0 63.018667 63.018667 0 0 0-125.994666 0z m731.904 29.098667H361.898667a36.138667 36.138667 0 0 1 0-72.192h497.92c19.882667 0 36.096 16.213333 36.096 36.096a36.266667 36.266667 0 0 1-36.224 36.096z m-731.904 226.133333a63.018667 63.018667 0 1 0 125.994666 0 63.018667 63.018667 0 0 0-125.994666 0z m731.904 29.056H361.898667a36.138667 36.138667 0 0 1 0-72.192h497.92c19.882667 0 36.096 16.213333 36.096 36.096a36.181333 36.181333 0 0 1-36.224 36.096z" p-id="8789"/></svg>