<svg xmlns="http://www.w3.org/2000/svg" xmlns:xlink="http://www.w3.org/1999/xlink" width="16" height="16" class="icon" p-id="14912" t="1711963701344" version="1.1" viewBox="0 0 1024 1024"><path d="M153.99999969 620.24H351.99999969l-217.59999938 217.51999969a41.20000031 41.20000031 0 1 0 58.32 58.32l220.95999938-220.99999969v196.32a41.23999969 41.23999969 0 0 0 82.52000062 0v-292.48000031c0-22.8-18.48-41.28-41.28-41.28H153.99999969a41.23999969 41.23999969 0 0 0 0 82.60000031z m455.60000062-172.48000031h300.96a41.23999969 41.23999969 0 0 0 0-82.51999969h-197.92000031l217.60000031-217.60000031a41.20000031 41.20000031 0 1 0-58.32-58.27999969l-221.04 220.96000031V114.00000031a41.23999969 41.23999969 0 0 0-82.52000062 0v292.51999969c0 22.75999969 18.48 41.20000031 41.28 41.20000031z" p-id="14913"/></svg>