<svg xmlns="http://www.w3.org/2000/svg" xmlns:xlink="http://www.w3.org/1999/xlink" width="16" height="16" class="icon" p-id="1044" t="1704950770229" version="1.1" viewBox="0 0 1024 1024"><path fill="#1890FF" d="M0 0m123.818667 0l776.362666 0q123.818667 0 123.818667 123.818667l0 776.362666q0 123.818667-123.818667 123.818667l-776.362666 0q-123.818667 0-123.818667-123.818667l0-776.362666q0-123.818667 123.818667-123.818667Z" p-id="1045"/><path fill="#FFF" d="M822.186667 425.898667A244.138667 244.138667 0 0 0 588.8 109.994667H258.730667v172.288H588.8a71.850667 71.850667 0 0 1 0 143.616H431.018667a172.202667 172.202667 0 0 0-172.288 172.202666v315.733334h172.288V669.952a71.850667 71.850667 0 0 1 71.765333-71.850667H588.8a243.968 243.968 0 0 0 233.386667-172.202666z" p-id="1046"/></svg>